<svg width="909" height="351" viewBox="0 0 909 351" fill="none" xmlns="http://www.w3.org/2000/svg">
<path d="M11.2135 192.607C9.79296 190.407 9.08277 188.207 12.6341 186.281C21.8677 183.806 22.5779 182.156 14.7649 178.305C11.2135 174.455 18.3163 171.43 18.3163 167.854C28.2601 164.554 28.2601 164.004 21.8676 159.603C21.8676 158.228 22.5782 157.128 22.5782 155.753C28.2604 154.928 29.6809 153.278 29.6809 151.077C29.6809 148.327 28.9705 145.577 38.9144 144.477C43.176 144.202 42.4655 142.551 38.2038 141.726C35.3627 141.176 31.8116 141.176 28.2603 141.451C25.4192 138.426 26.1294 135.126 28.2603 132.1C40.3349 129.075 40.3348 128.525 26.8396 125.499C26.8396 124.949 26.8396 124.674 26.8396 124.124C36.0732 121.924 36.0734 121.649 29.6809 118.899C28.9706 118.349 27.5501 118.074 26.1295 117.524C26.1295 100.472 16.1857 83.4196 19.0268 66.3677C20.4473 56.7416 10.5031 47.9406 13.3442 38.5895C15.4751 30.3386 15.4752 22.0876 16.1855 13.8367C16.1855 10.5363 19.737 8.88612 28.2603 7.78599C46.7274 5.03568 65.9048 4.76065 85.0822 6.41084C99.2877 7.78599 112.783 6.96087 126.278 5.31068C141.194 3.38546 157.53 3.11042 173.156 4.48558C187.361 5.58571 201.567 5.58574 215.062 5.03568C240.632 3.66052 265.492 4.21058 290.351 4.21058C303.136 4.21058 316.631 3.38546 329.416 5.31068C330.837 5.58572 332.968 5.31068 334.388 5.31068C359.248 1.73528 385.528 2.56039 411.098 1.46026C447.322 -0.189928 483.546 0.635158 519.77 0.635158C538.947 0.635158 558.835 2.0103 578.012 1.73527C610.685 1.46024 643.358 2.56038 676.03 0.635158C697.339 -0.464968 720.067 0.085095 742.086 0.635158C750.609 0.910189 758.422 -0.189928 766.945 0.0851034C792.515 1.18523 817.375 1.73528 842.945 2.56037C850.048 2.8354 857.15 1.18521 864.253 2.56037C865.674 3.6605 867.804 4.4856 870.645 3.38547C873.486 3.38547 876.328 3.66052 878.459 3.66052C880.589 3.93555 882.72 4.21055 884.851 4.48558C895.505 6.13577 896.215 6.13577 892.664 11.3614C891.243 13.0116 894.085 13.8367 896.215 14.9368C899.767 17.137 898.346 20.7125 891.953 21.5376C887.692 22.0876 884.851 22.6377 882.72 24.2879C879.169 27.0382 889.113 26.7631 889.113 27.8633C888.402 33.6389 896.925 31.7137 904.028 31.1637C904.028 32.8139 904.028 34.7391 904.028 36.3892C896.215 42.715 896.215 42.715 885.561 44.3651C887.692 46.8404 895.505 44.6402 898.346 46.8404C896.926 47.6655 895.505 48.7657 894.084 49.3157C888.402 51.516 885.561 53.7162 889.823 57.0166C892.664 59.2169 886.982 59.7669 884.141 61.1421C879.879 63.6174 894.084 62.7923 889.823 65.5426C889.112 66.0927 887.692 66.6427 886.981 67.1928C881.299 69.393 879.169 72.1434 880.589 75.1687C884.141 82.3195 882.72 89.4703 889.113 96.3461C890.533 97.4462 891.953 99.0964 886.981 99.3714C885.561 99.3714 883.43 97.9963 880.589 96.8962C881.3 100.197 877.038 102.397 874.907 104.872C873.487 105.972 872.776 108.172 875.617 108.172C889.112 108.172 877.748 113.123 884.851 114.223C878.458 118.349 886.982 117.524 891.953 116.973C896.925 116.423 900.477 114.773 906.159 116.148C908.29 117.799 908.29 119.449 907.58 121.374C900.477 123.024 895.505 124.949 899.767 128.525C901.187 129.625 899.766 130.175 897.636 130.45C894.084 131 889.823 131 887.692 132.925C892.664 134.025 899.767 132.375 902.608 134.851C900.477 136.226 894.084 135.951 896.925 138.701C900.477 142.551 901.187 146.952 906.159 150.527C906.159 151.077 905.449 151.352 904.738 151.627C899.766 152.453 898.346 154.378 894.084 155.753C883.43 158.503 883.43 161.254 891.243 164.829C894.084 165.929 898.346 166.204 900.477 167.854C889.823 170.605 896.926 176.38 887.692 179.681C886.982 179.956 887.692 181.056 889.113 181.331C895.505 184.356 891.954 186.556 885.561 188.757C879.879 190.682 874.907 192.607 884.851 194.807C888.402 195.632 888.402 196.733 886.981 198.383C885.561 199.758 884.14 201.133 888.402 202.783C892.664 201.133 894.084 197.008 904.028 198.383C905.449 199.758 905.449 200.858 903.318 201.958C881.3 206.634 881.299 206.634 891.953 214.06C892.664 214.335 892.664 214.885 892.664 215.435C891.243 215.71 890.533 215.985 891.953 215.985C891.953 215.985 892.664 215.71 892.664 215.435C895.505 215.435 898.346 215.435 901.187 215.435C901.187 216.26 901.187 217.085 901.187 217.91C897.636 218.185 892.664 217.91 892.664 220.11C892.664 222.035 896.215 223.136 901.187 223.411C900.477 224.236 900.477 225.061 899.767 225.886C896.215 226.436 893.374 226.986 893.374 228.636C893.374 230.011 897.636 230.011 899.767 230.011C901.898 231.662 901.897 233.312 899.056 235.237C895.505 235.787 894.084 236.337 896.925 237.712C899.767 243.488 899.056 249.539 896.925 255.314C894.084 264.94 893.374 274.566 899.767 283.918C900.477 285.018 901.187 286.118 901.187 287.218C895.505 300.695 903.318 313.621 905.449 326.822C905.449 328.198 905.449 329.573 905.449 330.673C906.869 340.849 901.897 345.525 873.487 346.9C869.935 347.175 865.673 348.275 862.122 348.275C821.636 347.45 782.571 351.025 742.086 349.925C716.516 349.1 690.236 350.2 664.666 349.1C651.171 348.55 637.675 349.65 624.18 347.725C618.498 346.9 612.106 347.725 605.713 348C579.433 348.55 552.442 348.825 526.162 348.55C511.247 348.55 496.331 349.65 481.415 349.375C444.481 349.1 407.547 350.475 370.613 347.45C352.856 346.075 334.388 346.9 316.631 347.175C308.108 347.175 301.006 347.175 292.482 346.35C275.436 344.7 256.969 343.874 239.212 343.324C211.511 342.499 183.1 341.674 155.399 342.224C128.409 342.774 102.839 340.024 76.5588 340.574C69.4561 340.849 63.0634 340.299 55.9607 340.849C49.5682 341.399 43.8863 341.949 38.9144 339.474C38.2041 338.924 36.073 338.649 34.6525 338.649C14.0545 336.724 10.5032 334.248 7.66214 325.722C6.24159 320.222 3.40058 314.996 1.98003 309.495C-0.861064 301.245 -0.860977 293.269 3.40067 285.293C11.924 284.743 21.1574 286.393 28.9704 283.918C21.8676 280.342 12.6342 279.517 3.40067 278.417C2.69039 276.217 1.26985 274.016 3.40067 271.816C7.66231 271.816 12.634 271.816 16.8956 271.541C21.8675 271.266 24.7089 269.891 21.1575 268.516C14.7651 266.04 18.3165 264.39 22.5782 262.465C27.5501 260.265 28.9703 257.79 27.5497 254.764C25.4189 252.014 26.1293 248.714 25.419 245.688C25.419 244.313 23.9986 243.213 21.1575 242.388C18.3164 247.338 18.3162 247.338 6.2415 246.513C6.2415 245.138 6.24159 243.763 7.66214 242.388C10.5032 241.288 14.765 240.188 9.08277 238.537C9.08277 231.937 9.0826 225.336 9.79288 218.735C14.0545 217.36 19.7367 216.26 9.79288 214.885C9.79288 214.06 10.5034 213.234 10.5034 212.409C19.0267 212.409 22.5782 210.759 22.5782 207.459C22.5782 204.984 21.8679 202.783 22.5782 200.308C23.9987 195.632 20.4471 193.432 11.2135 192.607ZM53.83 175.555C58.0916 175.83 58.0918 179.406 60.2226 178.305C64.4842 176.105 67.3251 153.003 66.6148 150.802C65.9045 149.977 65.1943 149.427 63.0634 149.427C61.6429 149.427 59.5122 149.427 58.802 149.977C56.6711 151.077 54.5405 152.177 54.5405 153.278C52.4097 157.678 53.1199 162.079 47.4378 166.204C46.0172 167.029 46.0169 168.679 48.858 169.229C57.3812 170.88 52.4094 173.63 53.83 175.555C52.4094 175.83 51.6993 176.105 53.1199 176.105C53.1199 176.105 53.83 175.83 53.83 175.555ZM404.706 203.333C396.182 197.558 401.864 191.782 405.416 185.731C410.388 186.831 406.126 189.307 411.808 189.582C414.649 189.032 413.229 188.207 413.229 187.381C413.229 185.456 415.36 183.256 408.257 182.706C401.864 182.156 397.603 183.531 394.051 185.456C389.79 187.382 391.921 189.582 392.631 191.782C392.631 195.082 391.21 197.558 381.267 197.833C380.556 197.833 380.556 198.658 379.846 199.208C385.528 199.758 391.921 199.758 388.369 203.608C386.239 205.809 390.5 208.559 392.631 211.034C402.575 209.109 406.126 206.909 404.706 203.333C407.547 203.058 410.388 203.333 409.678 201.683C409.678 201.408 408.967 201.408 408.967 201.133C405.416 201.133 405.416 202.508 404.706 203.333ZM619.919 115.598C619.919 113.673 619.919 112.848 619.919 112.023C619.919 111.473 619.919 111.198 619.919 110.648C619.208 109.548 617.788 108.723 614.236 108.723C611.395 108.723 610.685 109.548 609.975 110.373C606.423 118.074 609.264 125.774 606.423 133.475C606.423 134.025 607.134 134.85 607.844 135.126C612.105 136.501 610.685 137.876 608.554 139.526C605.713 142.276 600.031 144.477 596.48 146.677C587.246 152.453 609.264 153.553 609.975 158.228C609.975 159.603 613.526 160.428 617.788 160.153C619.208 160.153 619.919 159.878 621.339 159.878C626.311 159.603 628.442 160.703 629.863 162.354C630.573 163.729 629.862 165.104 630.573 166.204C630.573 167.029 631.283 167.854 634.124 168.129C637.675 168.404 639.096 167.579 640.517 166.479C643.358 163.729 644.778 160.979 644.068 158.228C643.358 154.378 640.516 150.802 646.909 146.952C650.46 144.752 646.909 141.451 644.068 138.701C641.227 136.501 630.573 134.575 625.601 135.676C619.208 137.051 617.078 135.676 615.657 134.025C612.816 129.35 617.077 124.674 617.077 119.999C616.367 119.174 619.919 116.698 619.919 115.598ZM645.488 75.9938C654.722 78.469 654.722 78.7441 652.591 82.3195C651.881 83.6946 653.301 84.2447 655.432 85.0698C657.563 85.8949 657.563 86.995 655.432 88.0952C648.33 90.8455 650.46 92.2206 659.694 92.4956C661.114 92.4956 663.245 93.3207 661.825 93.8708C651.881 98.5463 666.797 99.3714 669.638 102.122C673.189 100.472 670.348 97.9963 676.74 97.1712C681.712 99.6465 692.367 101.297 687.395 105.972C686.684 106.797 688.105 108.172 690.946 108.723C695.208 109.273 696.628 108.172 699.469 107.072C703.021 105.697 700.89 104.322 699.469 102.947C697.339 100.197 693.787 97.1712 696.628 94.6959C693.787 92.4957 689.526 94.6959 686.685 93.3208C690.236 91.6706 693.787 90.0204 696.628 88.0952C701.6 85.0698 698.759 83.1446 689.525 82.8695C684.553 82.5945 679.582 82.3195 674.61 81.7694C668.217 80.9443 666.086 79.5692 671.768 77.644C674.61 76.8189 677.451 75.9938 677.451 74.6186C677.451 73.5185 678.161 72.4183 675.32 71.8683C672.479 71.3182 671.058 72.1433 669.638 72.6934C667.507 73.5185 664.666 75.9938 663.245 75.4437C656.142 72.4184 651.17 77.0939 645.488 75.9938ZM647.619 12.7365C631.993 9.16112 617.077 14.9368 602.162 12.4615C579.433 15.2118 554.574 11.6364 530.424 15.4868C551.732 17.6871 628.442 15.7619 647.619 12.7365ZM872.776 328.198C867.094 328.748 862.122 329.023 858.571 330.673C857.15 331.498 856.44 332.323 858.571 332.873C865.673 334.523 868.515 337.549 874.907 339.199C877.748 340.024 879.879 339.474 881.299 338.374C882.72 337.274 878.458 329.023 876.327 328.473C874.907 328.473 873.486 328.198 872.776 328.198ZM286.8 14.6618C276.856 14.6618 269.753 14.6618 262.651 14.6618C256.969 14.6618 251.286 15.2118 249.155 17.6871C248.445 18.2372 249.866 19.0623 250.576 19.3373C256.258 20.4374 262.651 22.0876 269.753 20.4374C271.884 19.8874 274.725 19.3373 275.436 18.2372C276.146 16.0369 281.828 16.587 286.8 14.6618ZM56.6712 147.227C62.3534 146.677 68.0356 146.677 67.3253 143.652C66.6151 142.001 64.4841 141.451 60.9327 141.451C55.2505 141.451 50.989 142.551 51.6992 145.027C50.989 146.402 53.1199 147.502 56.6712 147.227ZM352.145 47.9406C352.855 46.2904 349.304 46.2904 346.463 46.0153C342.912 45.4653 339.36 45.7403 337.94 47.1155C336.519 48.4906 339.36 49.0407 342.202 49.5908C347.173 50.1408 350.014 49.3157 352.145 47.9406ZM882.72 36.9393C878.458 35.5641 874.197 35.2891 869.935 36.6643C869.225 36.9393 869.225 38.0394 869.935 38.3145C874.197 40.2397 877.748 38.0395 882.01 38.0395C882.01 38.3145 882.01 37.4894 882.72 36.9393ZM891.243 124.674C889.113 123.849 889.113 121.924 884.141 121.924C881.3 121.924 880.589 122.749 881.299 123.574C882.72 124.949 883.43 126.6 888.402 126.6C890.533 126.325 891.243 125.499 891.243 124.674ZM365.64 46.5654C366.351 46.2904 366.351 46.0153 367.061 45.7403C366.351 45.7403 365.64 45.4653 365.64 45.7403C364.93 46.0153 363.51 46.0154 363.51 46.2904C363.51 46.8405 364.22 46.8404 365.64 46.5654ZM880.589 133.2C879.879 132.925 878.458 132.65 877.748 132.65C877.038 132.65 876.327 133.475 876.327 133.75C876.327 134.025 878.458 134.3 879.169 134.3C879.879 134.025 880.589 133.475 880.589 133.2ZM891.243 37.7644C891.243 38.0394 891.243 38.0395 891.243 38.0395C891.243 38.0395 891.954 38.3145 892.664 38.0395C893.374 37.7644 893.374 37.4894 892.664 37.4894C891.954 37.4894 891.954 37.4894 891.243 37.7644Z" fill="#F5C4B2"/>
<path d="M906.87 115.048C901.898 113.673 897.636 115.048 892.664 115.873C887.692 116.698 879.169 117.248 885.561 113.123C878.459 112.023 889.823 107.072 876.327 107.072C873.486 107.072 874.197 104.872 875.617 103.772C877.748 101.297 882.01 99.0964 881.3 95.796C884.141 96.8962 886.272 98.5463 887.692 98.2713C892.664 97.9963 891.243 96.3461 889.823 95.246C883.43 88.3702 884.851 81.2194 881.3 74.0685C879.879 71.3182 881.3 68.2929 887.692 66.0926C889.113 65.5426 889.823 64.9925 890.533 64.4424C894.795 61.6921 880.589 62.5172 884.851 60.042C886.982 58.6668 893.374 57.8417 890.533 55.9165C886.271 52.8911 889.113 50.4158 894.795 48.2156C896.926 47.3905 897.636 46.5654 899.056 45.7403C895.505 43.54 888.402 45.7403 886.272 43.265C896.926 41.6148 896.925 41.6148 904.738 35.2891C911.131 38.5895 906.159 42.4399 906.87 46.0153C909.711 66.9177 909 87.8201 908.29 108.447C909 111.198 907.58 113.123 906.87 115.048Z" fill="#F5C4B2"/>
<path d="M904.028 197.008C894.084 195.632 893.374 199.758 888.402 201.408C884.14 199.758 885.561 198.383 886.981 197.008C888.402 195.632 887.692 194.257 884.851 193.432C874.907 191.232 880.589 189.307 885.561 187.381C891.954 185.181 894.795 182.981 889.113 179.956C888.402 179.406 887.692 178.305 887.692 178.305C896.215 175.005 889.823 169.504 900.477 166.479C899.056 164.829 894.084 164.829 891.243 163.454C883.43 159.878 884.14 156.853 894.084 154.378C898.346 153.278 899.766 151.077 904.738 150.252C908.29 166.204 905.449 181.606 904.028 197.008Z" fill="#F5C4B2"/>
<path d="M6.24139 245.688C18.3161 246.513 18.3163 246.513 21.1574 241.563C24.7088 242.388 25.4189 243.488 25.4189 244.863C26.1292 247.888 25.4188 250.914 27.5496 253.939C29.6804 256.965 27.55 259.44 22.578 261.64C18.3164 263.565 14.7649 265.215 21.1574 267.691C24.7088 269.066 21.8674 270.441 16.8955 270.716C12.6339 270.991 7.6622 270.716 3.40056 270.991C2.69028 262.19 1.97975 253.939 6.24139 245.688Z" fill="#F5C4B2"/>
<path d="M905.449 30.6136C898.346 31.1636 889.112 33.0889 890.533 27.3132C890.533 26.2131 881.299 26.4881 884.141 23.7378C886.271 22.3626 889.112 21.5375 893.374 20.9875C899.056 20.1624 901.187 16.862 897.636 14.3867C896.215 13.2866 893.374 12.4615 894.084 10.8113C897.636 5.86075 896.925 5.86075 886.271 3.93553C884.14 3.6605 882.009 3.38546 879.879 3.11043C889.112 0.910174 899.056 2.28535 902.608 6.13579C905.449 8.8861 906.159 12.1865 906.159 15.2118C906.159 20.7125 905.449 25.663 905.449 30.6136Z" fill="#F5C4B2"/>
<path d="M906.869 149.427C901.898 145.577 901.897 141.451 897.636 137.601C894.794 134.851 901.898 135.126 903.318 133.75C899.767 131.275 892.664 132.65 888.402 131.825C890.533 130.175 894.795 129.9 898.346 129.35C900.477 129.075 901.897 128.525 900.477 127.425C896.215 123.849 901.187 121.924 908.29 120.274C908.29 128.8 909 137.326 909 145.852C909 147.227 909 148.602 906.869 149.427Z" fill="#F5C4B2"/>
<path d="M11.2136 192.607C20.4471 193.432 23.9986 195.357 23.2883 199.208C22.578 201.683 23.2883 203.883 23.2883 206.359C23.2883 209.659 19.7369 211.309 11.2136 211.309C4.8211 205.259 10.5033 198.933 11.2136 192.607Z" fill="#F5C4B2"/>
<path d="M892.664 213.785C892.664 213.234 892.664 212.959 891.953 212.409C881.299 204.984 881.3 204.984 903.318 200.308C908.29 204.984 901.897 209.384 901.187 213.785C898.346 214.06 895.505 214.06 892.664 213.785Z" fill="#F5C4B2"/>
<path d="M3.40043 277.317C12.634 278.417 21.8674 279.242 28.9701 282.817C20.4468 285.018 11.2134 283.642 3.40043 284.193C1.97988 281.717 1.97988 279.517 3.40043 277.317Z" fill="#F5C4B2"/>
<path d="M28.2603 141.451C31.8116 141.451 34.6525 141.176 38.2038 141.726C41.7552 142.551 42.4657 144.202 38.9144 144.477C28.9705 145.577 29.6809 148.327 29.6809 151.077C29.6809 153.278 28.2603 154.928 22.5782 155.753C23.9987 151.077 21.8678 146.127 28.2603 141.451Z" fill="#F5C4B2"/>
<path d="M26.8397 125.499C40.3349 128.525 40.335 129.075 28.2603 132.1C24.709 130.175 21.8678 127.975 26.8397 125.499Z" fill="#F5C4B2"/>
<path d="M14.7647 178.305C21.8674 182.156 21.8675 184.081 12.6339 186.281C8.37228 183.531 14.0544 181.056 14.7647 178.305Z" fill="#F5C4B2"/>
<path d="M21.8677 159.603C28.2601 163.729 28.2601 164.554 18.3163 167.854C14.7649 164.829 20.4471 162.354 21.8677 159.603Z" fill="#F5C4B2"/>
<path d="M26.8396 117.524C28.2602 118.074 28.9704 118.349 30.391 118.899C36.7834 121.649 36.7833 121.649 27.5497 124.124C25.4189 121.924 21.8677 119.724 26.8396 117.524Z" fill="#F5C4B2"/>
<path d="M901.187 221.76C896.215 221.485 892.664 220.385 892.664 218.46C892.664 216.26 896.925 216.535 901.187 216.26C903.318 218.185 902.607 220.11 901.187 221.76Z" fill="#F5C4B2"/>
<path d="M900.477 228.636C897.636 228.361 894.084 228.636 894.084 227.261C894.084 225.611 896.925 225.061 900.477 224.511C901.897 225.886 901.897 227.261 900.477 228.636Z" fill="#F5C4B2"/>
<path d="M10.5033 214.06C19.7369 215.435 14.7649 216.535 10.5033 217.91C6.24166 216.535 6.24166 215.16 10.5033 214.06Z" fill="#F5C4B2"/>
<path d="M9.79275 237.712C14.7647 239.363 11.2136 240.463 8.37255 241.563C6.95201 240.188 6.95166 238.813 9.79275 237.712Z" fill="#F5C4B2"/>
<path d="M897.635 236.062C894.794 234.687 896.925 234.137 899.766 233.587C901.187 234.687 901.187 235.787 897.635 236.062Z" fill="#F5C4B2"/>
<path d="M871.356 3.38543C868.515 4.48555 866.384 3.93548 864.963 2.56033C867.804 2.01026 869.935 2.01027 871.356 3.38543Z" fill="#F5C4B2"/>
<path d="M619.919 115.598C619.919 116.699 616.367 119.174 616.367 120.549C616.367 125.224 612.106 129.9 614.947 134.576C616.367 136.226 618.498 137.601 624.891 136.226C629.863 135.126 641.227 137.051 643.358 139.251C646.199 142.001 649.75 145.027 646.199 147.502C639.806 151.352 642.647 154.928 643.358 158.778C644.068 161.529 642.647 164.554 639.806 167.029C638.386 168.129 636.965 168.954 633.414 168.679C630.573 168.404 629.863 167.579 629.863 166.754C629.152 165.379 629.862 164.004 629.152 162.904C628.442 161.254 626.311 160.153 620.629 160.429C619.208 160.429 618.498 160.704 617.077 160.704C612.816 160.979 609.975 159.878 609.265 158.778C608.554 154.103 586.536 153.278 595.769 147.227C599.321 144.752 605.003 142.826 607.844 140.076C609.264 138.151 611.395 137.051 607.134 135.676C605.713 135.401 605.003 134.576 605.713 134.025C607.844 126.325 605.713 118.624 609.265 110.923C609.975 110.098 610.685 109.273 613.526 109.273C617.077 109.273 618.498 110.098 619.209 111.198C619.209 111.748 619.209 112.023 619.209 112.573C619.919 112.848 619.919 113.673 619.919 115.598Z" fill="#F5C4B2"/>
<path d="M645.488 75.9937C651.881 76.8188 656.853 72.1433 663.245 75.7187C663.955 76.2688 666.797 73.7935 669.638 72.9684C671.058 72.4184 673.189 71.5933 675.32 72.1433C678.161 72.6934 678.161 73.7935 677.45 74.8936C676.74 76.2688 673.899 77.0939 671.768 77.919C666.086 79.8442 668.217 81.2194 674.61 82.0445C679.582 82.5945 684.553 83.1446 689.525 83.1446C698.759 83.4196 700.89 85.3448 696.628 88.3702C693.787 90.2954 690.236 91.9456 686.684 93.5958C689.526 94.9709 693.787 92.7707 696.628 94.9709C693.787 97.4462 697.338 100.197 699.469 103.222C700.89 104.597 703.021 105.972 699.469 107.347C697.338 108.172 695.208 109.548 690.946 108.998C688.105 108.447 685.974 107.072 687.395 106.247C692.366 101.572 681.712 99.9215 676.74 97.4462C669.638 98.2713 673.189 100.747 669.638 102.397C666.797 99.6465 651.881 98.8214 661.825 94.1458C663.245 93.5958 661.824 92.7707 659.694 92.7707C650.46 92.2206 648.329 90.8454 655.432 88.3702C657.563 87.5451 657.563 86.445 655.432 85.3448C654.012 84.5197 651.881 83.9697 652.591 82.5945C654.722 78.7441 654.722 78.7441 645.488 75.9937Z" fill="#F5C4B2"/>
<path d="M404.706 203.333C405.416 206.634 402.574 209.109 393.341 210.759C390.5 208.284 386.949 205.534 389.079 203.333C392.631 199.483 386.238 199.483 380.556 198.933C381.266 198.383 381.266 197.558 381.977 197.558C391.921 197.008 393.341 194.807 393.341 191.507C393.341 189.307 390.5 187.382 394.762 185.181C398.313 183.256 403.285 181.881 408.967 182.431C416.07 182.981 413.939 185.181 413.939 187.106C413.939 187.932 415.359 188.757 412.518 189.307C406.836 189.032 411.098 186.556 406.126 185.456C401.865 191.782 396.893 197.558 404.706 203.333Z" fill="#F5C4B2"/>
<path d="M53.8298 175.555C52.4093 173.355 57.3811 170.604 48.8578 169.229C46.0167 168.679 46.0171 167.029 47.4376 166.204C53.1198 162.079 52.4095 157.678 54.5404 153.278C55.2506 152.177 57.3813 150.802 58.8018 149.977C59.5121 149.702 61.6428 149.427 63.0633 149.427C65.1941 149.427 65.9044 149.977 66.6147 150.802C68.0352 153.003 64.4841 176.105 60.2225 178.305C58.0916 179.681 58.0915 176.105 53.8298 175.555Z" fill="#F5C4B2"/>
<path d="M647.619 12.7365C628.442 16.0369 552.443 17.6871 530.424 15.4869C554.573 11.6364 579.433 14.9368 602.162 12.4615C616.367 14.9368 631.993 8.8861 647.619 12.7365Z" fill="#F5C4B2"/>
<path d="M872.776 328.198C873.486 328.198 875.617 328.473 876.327 328.748C878.458 329.298 882.72 337.549 881.299 338.649C879.879 339.749 877.748 340.299 874.907 339.474C868.515 337.824 865.673 334.523 858.57 333.148C856.44 332.598 857.15 331.773 858.57 330.948C862.122 329.023 867.094 328.748 872.776 328.198Z" fill="#F5C4B2"/>
<path d="M286.8 14.6617C281.828 16.3119 276.146 16.0369 274.725 18.2371C274.015 19.3372 271.173 19.8873 269.043 20.4374C261.94 22.0876 256.258 20.1624 249.866 19.3373C249.155 19.0622 247.735 18.2371 248.445 17.6871C250.576 15.2118 256.258 14.9368 261.94 14.6617C270.463 14.6617 277.566 14.6617 286.8 14.6617Z" fill="#F5C4B2"/>
<path d="M56.6712 147.227C53.1198 147.502 50.9891 146.402 50.9891 145.027C50.9891 142.551 54.5404 141.451 60.2226 141.451C63.774 141.451 66.6148 142.001 66.6148 143.652C68.0353 146.677 62.3534 146.677 56.6712 147.227Z" fill="#F5C4B2"/>
<path d="M352.145 47.9406C349.304 49.3157 346.463 50.1409 342.201 49.5908C339.36 49.0407 336.519 48.4906 337.939 47.1155C339.36 45.7403 342.911 45.4653 346.463 46.0154C349.304 46.2904 352.855 46.5654 352.145 47.9406Z" fill="#F5C4B2"/>
<path d="M882.72 36.9394C882.01 37.4895 882.009 38.0396 881.299 38.0396C877.038 38.0396 873.486 40.2398 869.224 38.3146C868.514 38.0395 868.514 36.9394 869.224 36.6644C874.196 35.2892 878.458 35.8393 882.72 36.9394Z" fill="#F5C4B2"/>
<path d="M891.243 124.674C891.243 125.775 890.533 126.325 889.113 126.325C884.141 126.325 883.43 124.674 882.01 123.299C881.3 122.474 881.299 121.649 884.851 121.649C889.112 121.924 889.113 123.849 891.243 124.674Z" fill="#F5C4B2"/>
<path d="M365.64 46.5653C364.22 46.8404 363.51 46.5654 363.51 46.2903C363.51 46.0153 364.93 45.7402 365.64 45.7402C366.351 45.7402 366.351 45.7402 367.061 45.7402C366.351 46.0153 366.351 46.2903 365.64 46.5653Z" fill="#F5C4B2"/>
<path d="M880.589 133.2C879.879 133.475 879.879 134.025 879.169 134.3C878.458 134.3 877.038 134.025 876.327 133.75C876.327 133.475 877.038 132.925 877.748 132.65C878.458 132.65 879.879 132.925 880.589 133.2Z" fill="#F5C4B2"/>
<path d="M404.706 203.333C405.416 202.233 405.416 201.133 408.967 201.408C409.677 201.408 409.678 201.683 409.678 201.958C410.388 203.333 407.547 203.333 404.706 203.333Z" fill="#F5C4B2"/>
<path d="M891.243 37.7644C891.954 37.7644 891.954 37.4893 892.664 37.4893C894.084 37.4893 894.084 37.7644 892.664 38.0394C892.664 38.0394 891.954 38.0394 891.243 38.0394V37.7644Z" fill="#F5C4B2"/>
<path d="M53.8301 175.555C53.8301 175.83 53.12 176.105 53.12 176.105C51.6994 176.105 52.4095 175.83 53.8301 175.555Z" fill="#F5C4B2"/>
<path d="M892.664 214.06C892.664 214.335 891.954 214.61 891.954 214.61C890.533 214.335 890.533 214.06 892.664 214.06Z" fill="#F5C4B2"/>
</svg>
